<!-- public/icons/settings.svg -->
<svg xmlns="http://www.w3.org/2000/svg" fill="none" viewBox="0 0 24 24" stroke-width="1.8" stroke="currentColor">
  <path stroke-linecap="round" stroke-linejoin="round" d="M11.25 4.5l.401 1.204a.75.75 0 00.71.521h.108a.75.75 0 00.71-.521L13.5 4.5m1.19 0a8.25 8.25 0 012.285.902l.823-.823a.75.75 0 011.06 1.06l-.823.823a8.25 8.25 0 01.902 2.285l1.204.401a.75.75 0 01.521.71v.108a.75.75 0 01-.521.71L19.5 10.5m0 3l1.204.401a.75.75 0 01.521.71v.108a.75.75 0 01-.521.71l-1.204.401a8.25 8.25 0 01-.902 2.285l.823.823a.75.75 0 01-1.06 1.06l-.823-.823a8.25 8.25 0 01-2.285.902l-.401 1.204a.75.75 0 01-.71.521h-.108a.75.75 0 01-.71-.521L12.75 19.5m-1.5 0l-.401 1.204a.75.75 0 01-.71.521h-.108a.75.75 0 01-.71-.521L9 19.5a8.25 8.25 0 01-2.285-.902l-.823.823a.75.75 0 01-1.06-1.06l.823-.823a8.25 8.25 0 01-.902-2.285l-1.204-.401a.75.75 0 01-.521-.71v-.108a.75.75 0 01.521-.71L4.5 13.5m0-3L3.296 9.799a.75.75 0 01-.521-.71V8.98a.75.75 0 01.521-.71L4.5 7.869a8.25 8.25 0 01.902-2.285l-.823-.823a.75.75 0 011.06-1.06l.823.823A8.25 8.25 0 019 4.5l.401-1.204a.75.75 0 01.71-.521h.108a.75.75 0 01.71.521L11.25 4.5z" />
  <circle cx="12" cy="12" r="3.25" />
</svg>
